<?xml version="1.0" standalone="no"?>
<!DOCTYPE svg PUBLIC "-//W3C//DTD SVG 20010904//EN"
 "http://www.w3.org/TR/2001/REC-SVG-20010904/DTD/svg10.dtd">
<svg version="1.0" xmlns="http://www.w3.org/2000/svg"
 width="170.000000pt" height="170.000000pt" viewBox="0 0 170.000000 170.000000"
 preserveAspectRatio="xMidYMid meet">
<metadata>
Created by potrace 1.11, written by Peter Selinger 2001-2013
</metadata>
<g transform="translate(0.000000,170.000000) scale(0.100000,-0.100000)"
fill="#000000" stroke="none">
<path d="M1055 1600 c-4 -6 -5 -20 -3 -33 2 -22 -7 -28 -29 -20 -6 3 -10 10
-7 17 8 22 -22 39 -45 26 -27 -14 -27 -50 -1 -57 32 -8 23 -28 -12 -28 -27 0
-34 -4 -36 -23 -2 -13 3 -24 12 -28 13 -5 13 -10 2 -37 -7 -18 -28 -78 -47
-134 -19 -61 -38 -103 -46 -103 -7 0 -13 4 -13 9 0 27 -32 186 -41 203 -6 11
-12 39 -13 62 -2 37 -5 41 -30 44 -26 3 -28 6 -22 34 7 37 -7 58 -35 51 -18
-5 -20 -11 -15 -44 3 -22 4 -39 0 -39 -11 0 -34 29 -34 44 0 20 -20 20 -46 1
-18 -15 -18 -16 10 -39 47 -39 29 -74 -73 -139 -36 -23 -55 -67 -45 -99 7 -24
44 -32 90 -19 43 12 51 8 63 -37 l10 -32 -77 0 c-42 0 -82 -4 -88 -8 -16 -10
-86 -170 -88 -198 -1 -25 -12 -30 -34 -15 -9 5 -11 17 -6 34 8 33 -14 37 -41
7 -10 -11 -27 -20 -37 -20 -23 0 -35 -27 -19 -43 21 -21 11 -35 -28 -42 -45
-8 -78 -38 -87 -82 -9 -47 22 -73 86 -73 51 0 73 -18 62 -49 -2 -7 1 -17 8
-21 9 -6 0 -16 -29 -34 -22 -14 -42 -34 -42 -44 -1 -9 -2 -25 -3 -34 -1 -9 -9
-23 -20 -31 -14 -10 -18 -26 -18 -64 0 -71 34 -156 97 -239 l54 -72 -37 -6
c-20 -3 -56 -6 -78 -6 -39 0 -75 -22 -60 -37 3 -3 46 -6 94 -6 67 0 96 5 115
18 26 17 28 16 55 -1 22 -16 45 -19 137 -18 104 1 113 2 153 29 35 23 47 26
65 17 58 -28 104 -39 129 -32 15 5 45 3 67 -2 35 -9 52 -6 120 17 67 24 83 26
96 15 21 -17 81 -23 105 -10 15 8 26 7 45 -6 53 -34 285 8 285 52 0 17 4 17
-45 -1 -46 -16 -171 -20 -180 -5 -3 5 7 27 24 47 17 21 47 74 67 118 32 68 39
95 45 180 4 55 8 103 8 107 1 4 14 5 30 2 27 -6 30 -4 27 17 -5 42 -35 97 -55
101 -18 3 -18 6 -6 43 8 21 13 41 11 42 -9 10 -36 -12 -46 -38 l-12 -29 -30
25 c-28 24 -58 33 -58 18 0 -4 10 -17 22 -30 l21 -23 -44 0 c-51 0 -81 13 -54
24 12 4 16 14 12 31 -3 20 0 27 19 31 13 3 24 13 24 21 0 10 -6 13 -16 9 -8
-3 -12 -2 -9 4 12 20 -33 10 -70 -15 -20 -15 -40 -24 -43 -21 -3 3 -11 1 -19
-5 -11 -9 -13 1 -13 60 0 70 0 71 26 71 25 0 26 2 20 32 -4 18 -15 50 -26 71
-11 21 -20 43 -20 49 0 6 -11 26 -26 45 -25 33 -26 33 -105 33 -43 0 -79 3
-79 8 0 4 15 32 33 62 31 51 38 57 96 75 67 22 84 40 79 83 -3 22 -9 28 -41
33 -20 3 -50 17 -65 30 -15 13 -31 27 -36 30 -4 4 0 21 10 37 15 26 15 33 5
46 -15 18 -47 21 -56 6z"/>
<path d="M398 83 c6 -2 18 -2 25 0 6 3 1 5 -13 5 -14 0 -19 -2 -12 -5z"/>
</g>
</svg>
